<svg id="Icons" height="512" viewBox="0 0 74 74" width="512" xmlns="http://www.w3.org/2000/svg"><path d="m21.688 30.816a1 1 0 0 1 -.707-1.707 4.142 4.142 0 0 1 3.173-1.177 2.1 2.1 0 0 0 2.4-2.4 4.053 4.053 0 0 1 4.346-4.348 2.1 2.1 0 0 0 2.4-2.4 4.051 4.051 0 0 1 4.345-4.345 2.2 2.2 0 0 0 1.8-.589 1 1 0 0 1 1.414 1.414 4.131 4.131 0 0 1 -3.17 1.174 2.1 2.1 0 0 0 -2.389 2.398 4.053 4.053 0 0 1 -4.347 4.347 2.1 2.1 0 0 0 -2.4 2.4 4.057 4.057 0 0 1 -4.35 4.35 2.208 2.208 0 0 0 -1.807.592 1 1 0 0 1 -.708.291z"/><path d="m50.409 50.47a.989.989 0 0 1 -.6-.2 1 1 0 0 1 -.2-1.4 4.174 4.174 0 0 1 2.646-1.546 5.3 5.3 0 0 0 .827-.25 1.028 1.028 0 0 1 1.4.918 1 1 0 0 1 -.691.953 7.432 7.432 0 0 1 -1.059.321 2.26 2.26 0 0 0 -1.526.808 1 1 0 0 1 -.797.396z"/><path d="m45.089 58.71a1 1 0 0 1 -.842-1.539 4.118 4.118 0 0 1 2.86-1.82c.159-.038.318-.076.476-.122a1 1 0 0 1 .555 1.922c-.188.054-.377.1-.567.144a2.188 2.188 0 0 0 -1.638.954 1 1 0 0 1 -.844.461z"/><path d="m55.84 42.15a1 1 0 0 1 -.71-1.7 4.411 4.411 0 0 1 2.289-1.132 2.216 2.216 0 0 0 1.641-.965 1 1 0 0 1 1.681 1.084 4.149 4.149 0 0 1 -2.841 1.818 2.531 2.531 0 0 0 -1.345.6 1 1 0 0 1 -.715.295z"/><path d="m16.978 52.927a1 1 0 0 1 -.938-.652 4.143 4.143 0 0 1 .252-3.375 2.207 2.207 0 0 0 .215-1.89c-.277-.743-.722-.961-1.4-1.291a4.057 4.057 0 0 1 -2.141-5.765 2.206 2.206 0 0 0 .216-1.889c-.276-.741-.721-.959-1.4-1.287a4.048 4.048 0 0 1 -2.14-5.76 2.2 2.2 0 0 0 .216-1.885 1 1 0 1 1 1.875-.7 4.136 4.136 0 0 1 -.253 3.372 2.2 2.2 0 0 0 -.217 1.885c.276.741.721.958 1.4 1.287a4.053 4.053 0 0 1 2.141 5.762 2.2 2.2 0 0 0 -.216 1.889c.276.744.721.961 1.4 1.291a4.057 4.057 0 0 1 2.142 5.766 2.21 2.21 0 0 0 -.215 1.891 1 1 0 0 1 -.589 1.285.989.989 0 0 1 -.348.066z"/><path d="m51.9 26.766a1.034 1.034 0 0 1 -.156-.012 1 1 0 0 1 -.8-.691l-1.3-4.176-4.175-1.3a1 1 0 0 1 -.281-1.772l3.571-2.525-.057-4.373a1 1 0 0 1 1.6-.814l3.506 2.616 4.141-1.4a1 1 0 0 1 1.269 1.268l-1.405 4.142 2.616 3.505a1 1 0 0 1 -.8 1.6h-.013l-4.373-.056-2.525 3.571a1 1 0 0 1 -.818.417zm-3.9-7.486 2.743.853a1 1 0 0 1 .658.658l.853 2.744 1.659-2.347a1 1 0 0 1 .829-.422l2.872.037-1.714-2.303a1 1 0 0 1 -.145-.919l.923-2.721-2.721.923a1.006 1.006 0 0 1 -.919-.146l-2.3-1.718.038 2.872a1.006 1.006 0 0 1 -.423.83z"/><path d="m36.115 65.189a1.01 1.01 0 0 1 -.468-.116l-3.865-2.048-3.882 2.022a1 1 0 0 1 -1.447-1.059l.754-4.308-3.117-3.063a1 1 0 0 1 .559-1.7l4.33-.614 1.949-3.915a1 1 0 0 1 .895-.555 1 1 0 0 1 .9.561l1.922 3.928 4.326.643a1 1 0 0 1 .548 1.707l-3.143 3.038.726 4.313a1 1 0 0 1 -.987 1.166zm-4.329-4.289a1 1 0 0 1 .468.116l2.539 1.345-.477-2.832a1 1 0 0 1 .291-.884l2.064-2-2.842-.422a1 1 0 0 1 -.751-.55l-1.263-2.58-1.279 2.567a1 1 0 0 1 -.755.545l-2.844.4 2.05 2.012a1 1 0 0 1 .285.886l-.5 2.829 2.548-1.328a1 1 0 0 1 .466-.104z"/><path d="m39.563 36.782a5.187 5.187 0 1 1 5.187-5.182 5.192 5.192 0 0 1 -5.187 5.182zm0-8.374a3.187 3.187 0 1 0 3.187 3.192 3.191 3.191 0 0 0 -3.187-3.192z"/><path d="m66.813 56.016a5.187 5.187 0 1 1 5.187-5.187 5.193 5.193 0 0 1 -5.187 5.187zm0-8.374a3.187 3.187 0 1 0 3.187 3.187 3.191 3.191 0 0 0 -3.187-3.187z"/><path d="m12.164 69.709a5.187 5.187 0 1 1 5.187-5.186 5.192 5.192 0 0 1 -5.187 5.186zm0-8.373a3.187 3.187 0 1 0 3.187 3.187 3.19 3.19 0 0 0 -3.187-3.187z"/><path d="m22.531 14.664a5.187 5.187 0 1 1 5.187-5.187 5.193 5.193 0 0 1 -5.187 5.187zm0-8.373a3.187 3.187 0 1 0 3.187 3.186 3.189 3.189 0 0 0 -3.187-3.186z"/><path d="m36.724 46.22a1 1 0 0 1 -.245-1.969l5.89-1.49a1 1 0 1 1 .49 1.938l-5.889 1.49a.993.993 0 0 1 -.246.031z"/><path d="m26.529 45.314a1 1 0 0 1 -.824-.432l-3.452-5a1 1 0 0 1 1.647-1.136l3.453 5a1 1 0 0 1 -.823 1.568z"/><path d="m15.617 23.741a1 1 0 0 1 -.824-.432l-3.452-5a1 1 0 1 1 1.646-1.137l3.452 5a1 1 0 0 1 -.822 1.569z"/><path d="m3 10.477a1 1 0 0 1 -.569-1.823l5-3.452a1 1 0 1 1 1.136 1.646l-5 3.452a1 1 0 0 1 -.567.177z"/><path d="m62.261 29.266a1 1 0 0 1 -.823-1.568l3.454-5a1 1 0 0 1 1.646 1.137l-3.453 5a1 1 0 0 1 -.824.431z"/><path d="m64.552 13.292a1 1 0 0 1 -.926-.624l-2.29-5.627a1 1 0 1 1 1.852-.754l2.29 5.627a1 1 0 0 1 -.549 1.3.983.983 0 0 1 -.377.078z"/></svg>